# xmcd
#
# Track frame offsets: 
#        150
#        17958
#        36551
#        53765
#        70020
#        92113
#        114399
#        131977
#        152015
#        169310
#        185184
#        202929
#        219325
#        233822
#        254167
#        270703
#
# Disc length: 3887 seconds
#
# Revision: 0
# Processed by: cddbd v1.5.2PL0 Copyright (c) Steve Scherf et al.
# Submitted via: ExactAudioCopy v1.0b4
#
DISCID=f20f2d10
DTITLE=Preacher Boy - Estate Bottled Blues
DYEAR=2016
DGENRE=Blues
TTITLE0=Envelope
TTITLE1=Saltpeter
TTITLE2=Lost Johnny Lost
TTITLE3=A Wilder Edge
TTITLE4=Revelation Falls
TTITLE5=Armageddon Days
TTITLE6=Loveless
TTITLE7=The Fine And The Weak
TTITLE8=February
TTITLE9=Fever Moon
TTITLE10=Never Nothing Like That
TTITLE11=Pulling Black Flowers From An Hourglass
TTITLE12=My Love
TTITLE13=You Ain't That Bad Off
TTITLE14=West Of The River
TTITLE15=As If I Now Understand
EXTD=
EXTT0=
EXTT1=
EXTT2=
EXTT3=
EXTT4=
EXTT5=
EXTT6=
EXTT7=
EXTT8=
EXTT9=
EXTT10=
EXTT11=
EXTT12=
EXTT13=
EXTT14=
EXTT15=
PLAYORDER=
